<svg xmlns="http://www.w3.org/2000/svg" xmlns:xlink="http://www.w3.org/1999/xlink" viewBox="0 0 509.79 359.51"><defs><style>.cls-1,.cls-11,.cls-12,.cls-8{fill:none;}.cls-2{fill:#009b4a;}.cls-3{fill:#f1f2f2;mix-blend-mode:lighten;}.cls-3,.cls-9{opacity:0.4;}.cls-4{isolation:isolate;}.cls-5{fill:#fff;}.cls-6{opacity:0.25;}.cls-7{clip-path:url(#clip-path);}.cls-8{stroke:#000;stroke-width:0px;opacity:0;}.cls-11,.cls-12,.cls-8{stroke-miterlimit:10;}.cls-10{clip-path:url(#clip-path-2);}.cls-11,.cls-12{stroke-width:8px;}.cls-11{stroke:url(#linear-gradient);}.cls-12{stroke:url(#linear-gradient-2);}.cls-13{clip-path:url(#clip-path-3);}.cls-14{fill:#dc2a28;}.cls-15{clip-path:url(#clip-path-4);}.cls-16{fill:#9658a3;}.cls-17{clip-path:url(#clip-path-5);}.cls-18{font-size:41px;fill:#231f20;font-family:Roboto-Bold, Roboto;font-weight:700;}.cls-19{letter-spacing:-0.01em;}.cls-20{clip-path:url(#clip-path-6);}</style><clipPath id="clip-path" transform="translate(0 6.97)"><rect class="cls-1" x="352.64" y="42.67" width="18.59" height="18.59"/></clipPath><clipPath id="clip-path-2" transform="translate(0 6.97)"><rect class="cls-1" x="299.45" y="55.61" width="20.65" height="20.65"/></clipPath><linearGradient id="linear-gradient" x1="274.06" y1="126.22" x2="305.25" y2="180.25" gradientUnits="userSpaceOnUse"><stop offset="0" stop-color="#019d49"/><stop offset="0.5" stop-color="#019d49"/><stop offset="0.5" stop-color="#9658a3"/><stop offset="1" stop-color="#9658a3"/></linearGradient><linearGradient id="linear-gradient-2" x1="200.18" y1="179.72" x2="231.04" y2="126.27" gradientUnits="userSpaceOnUse"><stop offset="0" stop-color="#dc2a28"/><stop offset="0.5" stop-color="#dc2a28"/><stop offset="0.5" stop-color="#019d49"/><stop offset="1" stop-color="#019d49"/></linearGradient><clipPath id="clip-path-3" transform="translate(0 6.97)"><rect class="cls-1" x="236.36" y="65.26" width="32.4" height="32.4"/></clipPath><clipPath id="clip-path-4" transform="translate(0 6.97)"><rect class="cls-1" x="165.62" y="199.5" width="25.65" height="22.95"/></clipPath><clipPath id="clip-path-5" transform="translate(0 6.97)"><rect class="cls-1" x="316.31" y="194.77" width="22.95" height="32.4"/></clipPath><clipPath id="clip-path-6" transform="translate(0 6.97)"><rect class="cls-1" x="396.64" y="98.67" width="43" height="26"/></clipPath><symbol id="Julia_Symbol" data-name="Julia Symbol" viewBox="0 0 88.09 88.09"><circle class="cls-2" cx="44.04" cy="44.04" r="44.04"/><circle class="cls-3" cx="44.04" cy="44.04" r="36.54"/></symbol></defs><g class="cls-4"><g id="Layer_2" data-name="Layer 2"><rect class="cls-5" y="6.97" width="509.79" height="352.54" rx="32.22"/></g><g id="Layer_1" data-name="Layer 1"><g class="cls-6"><use width="88.09" height="88.09" transform="translate(326.25 23.26) scale(0.81 0.81)" xlink:href="#Julia_Symbol"/><g class="cls-7"><path class="cls-8" d="M361.93,52Z" transform="translate(0 6.97)"/><path d="M362.59,44.3c-.17-.3-.33-.6-.71-.6s-.55.24-.74.6l-7.51,15.24c-.2.35-.2.41-.2.49a.68.68,0,0,0,.66.69c.39,0,.55-.23.77-.66l7-14.17,7,14.11c.25.52.36.72.77.72a.68.68,0,0,0,.66-.69c0-.08,0-.14-.19-.49L362.59,44.3" transform="translate(0 6.97)"/></g></g><circle class="cls-5" cx="309.83" cy="72.91" r="39.64"/><g class="cls-9"><use width="88.09" height="88.09" transform="translate(270.19 33.27) scale(0.9)" xlink:href="#Julia_Symbol"/><g class="cls-10"><path class="cls-8" d="M309.78,65.94Z" transform="translate(0 6.97)"/><path d="M309.64,64.76,301.83,57c-.47-.47-.55-.54-.86-.54a.81.81,0,0,0-.78.78c0,.27.08.35.51.78l7.8,7.85-7.8,7.84c-.43.43-.51.51-.51.78a.82.82,0,0,0,.78.79c.31,0,.39-.08.86-.55L309.6,67,317.68,75a1.38,1.38,0,0,0,.58.24.77.77,0,0,0,.79-.79.74.74,0,0,0-.12-.42c0-.08-6.25-6.21-8.2-8.2l7.14-7.15c.2-.23.79-.74,1-1a.91.91,0,0,0,.2-.51.76.76,0,0,0-.79-.78c-.31,0-.46.15-.89.58l-7.73,7.73" transform="translate(0 6.97)"/></g></g><line class="cls-11" x1="274.17" y1="126.18" x2="305.13" y2="180.3"/><line class="cls-12" x1="230.93" y1="126.22" x2="200.29" y2="179.76"/><polygon class="cls-8" points="393.03 54.09 393.03 54.09 393.03 54.09 393.03 54.09 393.03 54.09 393.03 54.09 393.03 54.09 393.03 54.09 393.03 54.09 393.03 54.09 393.03 54.09 393.03 54.09 393.03 54.09 393.03 54.09 393.03 54.09 393.03 54.09 393.03 54.09 393.03 54.09 393.03 54.09 393.03 54.09 393.03 54.09 393.03 54.09 393.03 54.09 393.03 54.09 393.03 54.09 393.03 54.09 393.03 54.09 393.03 54.09 393.03 54.09 393.03 54.09 393.03 54.09 393.03 54.09 393.03 54.09 393.03 54.09 393.03 54.09 393.03 54.09 393.03 54.09 393.03 54.09 393.03 54.09 393.03 54.09 393.03 54.09 393.03 54.09 393.03 54.09 393.03 54.09 393.03 54.09 393.03 54.09 393.03 54.09 393.03 54.09 393.03 54.09 393.03 54.09 393.03 54.09 393.03 54.09 393.03 54.09 393.03 54.09 393.03 54.09 393.03 54.09 393.03 54.09 393.03 54.09 393.03 54.09 393.03 54.09 393.03 54.09 393.03 54.09 393.03 54.09 393.03 54.09 393.03 54.09 393.03 54.09 393.03 54.09 393.03 54.09 393.03 54.09 393.03 54.09 393.03 54.09 393.03 54.09 393.03 54.09 393.03 54.09 393.03 54.09 393.03 54.09 393.03 54.09 393.03 54.09 393.03 54.09 393.03 54.09 393.03 54.09 393.03 54.09 393.03 54.09 393.03 54.09 393.03 54.09 393.03 54.09 393.03 54.09 393.03 54.09 393.03 54.09 393.03 54.09"/><use width="88.09" height="88.09" transform="translate(208.57 44.4)" xlink:href="#Julia_Symbol"/><g class="cls-13"><path class="cls-8" d="M252.56,82.14Z" transform="translate(0 6.97)"/><path d="M253.49,82.46H267c.68,0,1.6,0,1.6-1s-.92-1-1.6-1H253.49V67c0-.68,0-1.6-1-1.6s-1,.92-1,1.6V80.52H238c-.68,0-1.6,0-1.6,1s.92,1,1.6,1h13.57V96c0,.68,0,1.6,1,1.6s1-.92,1-1.6V82.46" transform="translate(0 6.97)"/></g><polygon class="cls-8" points="310.65 198.37 310.65 198.37 310.65 198.37 310.65 198.37 310.65 198.37 310.65 198.37 310.65 198.37 310.65 198.37 310.65 198.37 310.65 198.37 310.65 198.37 310.65 198.37 310.65 198.37 310.65 198.37 310.65 198.37 310.65 198.37 310.65 198.37 310.65 198.37 310.65 198.37 310.65 198.37 310.65 198.37 310.65 198.37 310.65 198.37 310.65 198.37 310.65 198.37 310.65 198.37 310.65 198.37 310.65 198.37 310.65 198.37 310.65 198.37 310.65 198.37 310.65 198.37 310.65 198.37 310.65 198.37 310.65 198.37 310.65 198.37 310.65 198.37 310.65 198.37 310.65 198.37 310.65 198.37 310.65 198.37 310.65 198.37 310.65 198.37 310.65 198.37 310.65 198.37 310.65 198.37 310.65 198.37 310.65 198.37 310.65 198.37 310.65 198.37 310.65 198.37 310.65 198.37 310.65 198.37 310.65 198.37 310.65 198.37 310.65 198.37 310.65 198.37 310.65 198.37 310.65 198.37 310.65 198.37 310.65 198.37 310.65 198.37 310.65 198.37 310.65 198.37 310.65 198.37 310.65 198.37 310.65 198.37 310.65 198.37 310.65 198.37 310.65 198.37 310.65 198.37 310.65 198.37 310.65 198.37 310.65 198.37 310.65 198.37 310.65 198.37 310.65 198.37 310.65 198.37 310.65 198.37 310.65 198.37 310.65 198.37 310.65 198.37 310.65 198.37 310.65 198.37 310.65 198.37 310.65 198.37 310.65 198.37 310.65 198.37 310.65 198.37"/><circle class="cls-14" cx="178.45" cy="217.94" r="44.04"/><circle class="cls-3" cx="178.45" cy="217.94" r="36.54"/><g class="cls-15"><path class="cls-8" d="M178.45,211Z" transform="translate(0 6.97)"/><path d="M180.6,207c.29-1.26,1.41-5.72,4.8-5.72a4.79,4.79,0,0,1,2.43.63,2.83,2.83,0,0,0-2.33,2.62,1.69,1.69,0,0,0,1.84,1.7,2.7,2.7,0,0,0,2.62-2.81c0-2.53-2.86-3.2-4.51-3.2-2.81,0-4.51,2.57-5.09,3.68a5.36,5.36,0,0,0-5.24-3.68c-5,0-7.8,6.25-7.8,7.46,0,.49.48.49.58.49.39,0,.53-.1.63-.54,1.65-5.14,4.85-6.35,6.5-6.35.92,0,2.61.44,2.61,3.25,0,1.5-.82,4.75-2.61,11.54-.78,3-2.48,5-4.61,5a4.66,4.66,0,0,1-2.42-.63,2.74,2.74,0,0,0,2.27-2.62,1.66,1.66,0,0,0-1.79-1.69,2.75,2.75,0,0,0-2.66,2.81c0,2.23,2.42,3.2,4.55,3.2,3.2,0,4.95-3.39,5.09-3.69a5.35,5.35,0,0,0,5.24,3.69c5,0,7.76-6.25,7.76-7.47,0-.48-.44-.48-.58-.48-.44,0-.54.19-.64.53-1.6,5.19-4.89,6.35-6.44,6.35-1.89,0-2.67-1.55-2.67-3.2a19,19,0,0,1,.82-4.26L180.6,207" transform="translate(0 6.97)"/></g><polygon class="cls-8" points="466.47 0 466.47 0 466.47 0 466.47 0 466.47 0 466.47 0 466.47 0 466.47 0 466.47 0 466.47 0 466.47 0 466.47 0 466.47 0 466.47 0 466.47 0 466.47 0 466.47 0 466.47 0 466.47 0 466.47 0 466.47 0 466.47 0 466.47 0 466.47 0 466.47 0 466.47 0 466.47 0 466.47 0 466.47 0 466.47 0 466.47 0 466.47 0 466.47 0 466.47 0 466.47 0 466.47 0 466.47 0 466.47 0 466.47 0 466.47 0 466.47 0 466.47 0 466.47 0 466.47 0 466.47 0 466.47 0 466.47 0 466.47 0 466.47 0 466.47 0 466.47 0 466.47 0 466.47 0 466.47 0 466.47 0 466.47 0 466.47 0 466.47 0 466.47 0 466.47 0 466.47 0 466.47 0 466.47 0 466.47 0 466.47 0 466.47 0 466.47 0 466.47 0 466.47 0 466.47 0 466.47 0 466.47 0 466.47 0 466.47 0 466.47 0 466.47 0 466.47 0 466.47 0 466.47 0 466.47 0 466.47 0 466.47 0 466.47 0 466.47 0 466.47 0 466.47 0 466.47 0 466.47 0 466.47 0"/><circle class="cls-16" cx="327.78" cy="217.94" r="44.04"/><circle class="cls-3" cx="327.78" cy="217.94" r="36.54"/><g class="cls-17"><path class="cls-8" d="M327.78,211Z" transform="translate(0 6.97)"/><path d="M338.52,198.44a3.13,3.13,0,0,0,.19-1.12,1.3,1.3,0,0,0-1.4-1.31,2.1,2.1,0,0,0-1.7,1c-.1.24-.48,1.75-.68,2.62-.34,1.26-.68,2.57-1,3.88l-2.18,8.73c-.19.72-2.28,4.12-5.48,4.12-2.47,0-3-2.14-3-3.93,0-2.23.83-5.24,2.48-9.5.77-2,1-2.52,1-3.49a3.84,3.84,0,0,0-4-4c-4.6,0-6.4,7-6.4,7.47s.49.48.58.48c.49,0,.54-.1.78-.87,1.31-4.56,3.25-6,4.9-6,.38,0,1.21,0,1.21,1.55a10.23,10.23,0,0,1-.83,3.39c-1.94,5.14-2.81,7.91-2.81,10.19,0,4.31,3.06,5.76,5.92,5.76a6.81,6.81,0,0,0,4.89-2.18,18.62,18.62,0,0,1-3.15,7.47,6.93,6.93,0,0,1-5.33,3.05c-.68,0-2.86-.14-3.69-2a2.79,2.79,0,0,0,2.09-.58,2.65,2.65,0,0,0,1-2,1.65,1.65,0,0,0-1.8-1.7c-1.11,0-2.71.78-2.71,3.15s2.13,4.22,5.14,4.22c5,0,10-4.41,11.34-9.89l4.66-18.52" transform="translate(0 6.97)"/></g><polygon class="cls-8" points="433.04 218.16 433.04 218.16 433.04 218.16 433.04 218.16 433.04 218.16 433.04 218.16 433.04 218.16 433.04 218.16 433.04 218.16 433.04 218.16 433.04 218.16 433.04 218.16 433.04 218.16 433.04 218.16 433.04 218.16 433.04 218.16 433.04 218.16 433.04 218.16 433.04 218.16 433.04 218.16 433.04 218.16 433.04 218.16 433.04 218.16 433.04 218.16 433.04 218.16 433.04 218.16 433.04 218.16 433.04 218.16 433.04 218.16 433.04 218.16 433.04 218.16 433.04 218.16 433.04 218.16 433.04 218.16 433.04 218.16 433.04 218.16 433.04 218.16 433.04 218.16 433.04 218.16 433.04 218.16 433.04 218.16 433.04 218.16 433.04 218.16 433.04 218.16 433.04 218.16 433.04 218.16 433.04 218.16 433.04 218.16 433.04 218.16 433.04 218.16 433.04 218.16 433.04 218.16 433.04 218.16 433.04 218.16 433.04 218.16 433.04 218.16 433.04 218.16 433.04 218.16 433.04 218.16 433.04 218.16 433.04 218.16 433.04 218.16 433.04 218.16 433.04 218.16 433.04 218.16 433.04 218.16 433.04 218.16 433.04 218.16 433.04 218.16 433.04 218.16 433.04 218.16 433.04 218.16 433.04 218.16 433.04 218.16 433.04 218.16 433.04 218.16 433.04 218.16 433.04 218.16 433.04 218.16 433.04 218.16 433.04 218.16 433.04 218.16 433.04 218.16 433.04 218.16 433.04 218.16 433.04 218.16 433.04 218.16 433.04 218.16 433.04 218.16"/><text class="cls-18" transform="translate(49.61 320.26)">SymbolicReg<tspan class="cls-19" x="241.8" y="0">r</tspan><tspan x="255.85" y="0">ession.jl</tspan></text><polygon class="cls-8" points="418.14 148.64 418.14 148.64 418.14 148.64 418.14 148.64 418.14 148.64 418.14 148.64 418.14 148.64 418.14 148.64 418.14 148.64 418.14 148.64 418.14 148.64 418.14 148.64 418.14 148.64 418.14 148.64 418.14 148.64 418.14 148.64 418.14 148.64 418.14 148.64 418.14 148.64 418.14 148.64 418.14 148.64 418.14 148.64 418.14 148.64 418.14 148.64 418.14 148.64 418.14 148.64 418.14 148.64 418.14 148.64 418.14 148.64 418.14 148.64 418.14 148.64 418.14 148.64 418.14 148.64 418.14 148.64 418.14 148.64 418.14 148.64 418.14 148.64 418.14 148.64 418.14 148.64 418.14 148.64 418.14 148.64 418.14 148.64 418.14 148.64 418.14 148.64 418.14 148.64 418.14 148.64 418.14 148.64 418.14 148.64 418.14 148.64 418.14 148.64 418.14 148.64 418.14 148.64 418.14 148.64 418.14 148.64 418.14 148.64 418.14 148.64 418.14 148.64 418.14 148.64 418.14 148.64 418.14 148.64 418.14 148.64 418.14 148.64 418.14 148.64 418.14 148.64 418.14 148.64 418.14 148.64 418.14 148.64 418.14 148.64 418.14 148.64 418.14 148.64 418.14 148.64 418.14 148.64 418.14 148.64 418.14 148.64 418.14 148.64 418.14 148.64 418.14 148.64 418.14 148.64 418.14 148.64 418.14 148.64 418.14 148.64 418.14 148.64 418.14 148.64 418.14 148.64 418.14 148.64 418.14 148.64 418.14 148.64 418.14 148.64 418.14 148.64 418.14 148.64 418.14 148.64 418.14 148.64 418.14 148.64 418.14 148.64 418.14 148.64 418.14 148.64 418.14 148.64"/><polygon class="cls-8" points="431.39 215.13 431.39 215.13 431.39 215.13 431.39 215.13 431.39 215.13 431.39 215.13 431.39 215.13 431.39 215.13 431.39 215.13 431.39 215.13 431.39 215.13 431.39 215.13 431.39 215.13 431.39 215.13 431.39 215.13 431.39 215.13 431.39 215.13 431.39 215.13 431.39 215.13 431.39 215.13 431.39 215.13 431.39 215.13 431.39 215.13 431.39 215.13 431.39 215.13 431.39 215.13 431.39 215.13 431.39 215.13 431.39 215.13 431.39 215.13 431.39 215.13 431.39 215.13 431.39 215.13 431.39 215.13 431.39 215.13 431.39 215.13 431.39 215.13 431.39 215.13 431.39 215.13 431.39 215.13 431.39 215.13 431.39 215.13 431.39 215.13 431.39 215.13 431.39 215.13 431.39 215.13 431.39 215.13 431.39 215.13 431.39 215.13 431.39 215.13 431.39 215.13 431.39 215.13 431.39 215.13 431.39 215.13 431.39 215.13 431.39 215.13 431.39 215.13 431.39 215.13 431.39 215.13 431.39 215.13 431.39 215.13 431.39 215.13 431.39 215.13 431.39 215.13 431.39 215.13 431.39 215.13 431.39 215.13 431.39 215.13 431.39 215.13 431.39 215.13 431.39 215.13 431.39 215.13 431.39 215.13 431.39 215.13 431.39 215.13 431.39 215.13 431.39 215.13 431.39 215.13 431.39 215.13 431.39 215.13 431.39 215.13 431.39 215.13 431.39 215.13 431.39 215.13 431.39 215.13 431.39 215.13 431.39 215.13 431.39 215.13 431.39 215.13 431.39 215.13 431.39 215.13 431.39 215.13 431.39 215.13 431.39 215.13 431.39 215.13 431.39 215.13 431.39 215.13 431.39 215.13 431.39 215.13"/><polygon class="cls-8" points="417.86 119.19 417.86 119.19 417.86 119.19 417.86 119.19 417.86 119.19 417.86 119.19 417.86 119.19 417.86 119.19 417.86 119.19 417.86 119.19 417.86 119.19 417.86 119.19 417.86 119.19 417.86 119.19 417.86 119.19 417.86 119.19 417.86 119.19 417.86 119.19 417.86 119.19 417.86 119.19 417.86 119.19 417.86 119.19 417.86 119.19 417.86 119.19 417.86 119.19 417.86 119.19 417.86 119.19 417.86 119.19 417.86 119.19 417.86 119.19 417.86 119.19 417.86 119.19 417.86 119.19 417.86 119.19 417.86 119.19 417.86 119.19 417.86 119.19 417.86 119.19 417.86 119.19 417.86 119.19 417.86 119.19 417.86 119.19 417.86 119.19 417.86 119.19 417.86 119.19 417.86 119.19 417.86 119.19 417.86 119.19 417.86 119.19 417.86 119.19 417.86 119.19 417.86 119.19 417.86 119.19 417.86 119.19 417.86 119.19 417.86 119.19 417.86 119.19 417.86 119.19 417.86 119.19 417.86 119.19 417.86 119.19 417.86 119.19 417.86 119.19 417.86 119.19 417.86 119.19 417.86 119.19 417.86 119.19 417.86 119.19 417.86 119.19 417.86 119.19 417.86 119.19 417.86 119.19 417.86 119.19 417.86 119.19 417.86 119.19 417.86 119.19 417.86 119.19 417.86 119.19 417.86 119.19 417.86 119.19 417.86 119.19 417.86 119.19 417.86 119.19 417.86 119.19 417.86 119.19 417.86 119.19 417.86 119.19 417.86 119.19 417.86 119.19 417.86 119.19 417.86 119.19 417.86 119.19 417.86 119.19 417.86 119.19 417.86 119.19 417.86 119.19 417.86 119.19"/><polygon class="cls-8" points="432.32 152.48 432.32 152.48 432.32 152.48 432.32 152.48 432.32 152.48 432.32 152.48 432.32 152.48 432.32 152.48 432.32 152.48 432.32 152.48 432.32 152.48 432.32 152.48 432.32 152.48 432.32 152.48 432.32 152.48 432.32 152.48 432.32 152.48 432.32 152.48 432.32 152.48 432.32 152.48 432.32 152.48 432.32 152.48 432.32 152.48 432.32 152.48 432.32 152.48 432.32 152.48 432.32 152.48 432.32 152.48 432.32 152.48 432.32 152.48 432.32 152.48 432.32 152.48 432.32 152.48 432.32 152.48 432.32 152.48 432.32 152.48 432.32 152.48 432.32 152.48 432.32 152.48 432.32 152.48 432.32 152.48 432.32 152.48 432.32 152.48 432.32 152.48 432.32 152.48 432.32 152.48 432.32 152.48 432.32 152.48 432.32 152.48 432.32 152.48 432.32 152.48 432.32 152.48 432.32 152.48 432.32 152.48 432.32 152.48 432.32 152.48 432.32 152.48 432.32 152.48 432.32 152.48 432.32 152.48 432.32 152.48 432.32 152.48 432.32 152.48 432.32 152.48 432.32 152.48 432.32 152.48 432.32 152.48 432.32 152.48 432.32 152.48 432.32 152.48 432.32 152.48 432.32 152.48 432.32 152.48 432.32 152.48 432.32 152.48 432.32 152.48 432.32 152.48 432.32 152.48 432.32 152.48 432.32 152.48 432.32 152.48 432.32 152.48 432.32 152.48 432.32 152.48 432.32 152.48 432.32 152.48 432.32 152.48 432.32 152.48 432.32 152.48 432.32 152.48"/><polygon class="cls-8" points="457.22 180.08 457.22 180.08 457.22 180.08 457.22 180.08 457.22 180.08 457.22 180.08 457.22 180.08 457.22 180.08 457.22 180.08 457.22 180.08 457.22 180.08 457.22 180.08 457.22 180.08 457.22 180.08 457.22 180.08 457.22 180.08 457.22 180.08 457.22 180.08 457.22 180.08 457.22 180.08 457.22 180.08 457.22 180.08 457.22 180.08 457.22 180.08 457.22 180.08 457.22 180.08 457.22 180.08 457.22 180.08 457.22 180.08 457.22 180.08 457.22 180.08 457.22 180.08 457.22 180.08 457.22 180.08 457.22 180.08 457.22 180.08 457.22 180.08 457.22 180.08 457.22 180.08 457.22 180.08 457.22 180.08 457.22 180.08 457.22 180.08 457.22 180.08 457.22 180.08 457.22 180.08 457.22 180.08 457.22 180.08 457.22 180.08 457.22 180.08 457.22 180.08 457.22 180.08 457.22 180.08 457.22 180.08 457.22 180.08 457.22 180.08 457.22 180.08 457.22 180.08 457.22 180.08 457.22 180.08 457.22 180.08 457.22 180.08 457.22 180.08 457.22 180.08 457.22 180.08 457.22 180.08 457.22 180.08 457.22 180.08 457.22 180.08 457.22 180.08 457.22 180.08 457.22 180.08 457.22 180.08 457.22 180.08 457.22 180.08 457.22 180.08 457.22 180.08 457.22 180.08 457.22 180.08 457.22 180.08 457.22 180.08 457.22 180.08 457.22 180.08 457.22 180.08 457.22 180.08 457.22 180.08 457.22 180.08 457.22 180.08 457.22 180.08 457.22 180.08 457.22 180.08 457.22 180.08 457.22 180.08 457.22 180.08 457.22 180.08 457.22 180.08 457.22 180.08"/><polygon class="cls-8" points="432.32 185.53 432.32 185.53 432.32 185.53 432.32 185.53 432.32 185.53 432.32 185.53 432.32 185.53 432.32 185.53 432.32 185.53 432.32 185.53 432.32 185.53 432.32 185.53 432.32 185.53 432.32 185.53 432.32 185.53 432.32 185.53 432.32 185.53 432.32 185.53 432.32 185.53 432.32 185.53 432.32 185.53 432.32 185.53 432.32 185.53 432.32 185.53 432.32 185.53 432.32 185.53 432.32 185.53 432.32 185.53 432.32 185.53 432.32 185.53 432.32 185.53 432.32 185.53 432.32 185.53 432.32 185.53 432.32 185.53 432.32 185.53 432.32 185.53 432.32 185.53 432.32 185.53 432.32 185.53 432.32 185.53 432.32 185.53 432.32 185.53 432.32 185.53 432.32 185.53 432.32 185.53 432.32 185.53 432.32 185.53 432.32 185.53 432.32 185.53 432.32 185.53 432.32 185.53 432.32 185.53 432.32 185.53 432.32 185.53 432.32 185.53 432.32 185.53 432.32 185.53 432.32 185.53 432.32 185.53 432.32 185.53 432.32 185.53 432.32 185.53 432.32 185.53 432.32 185.53 432.32 185.53 432.32 185.53 432.32 185.53 432.32 185.53 432.32 185.53 432.32 185.53 432.32 185.53 432.32 185.53 432.32 185.53 432.32 185.53 432.32 185.53 432.32 185.53 432.32 185.53 432.32 185.53 432.32 185.53 432.32 185.53 432.32 185.53 432.32 185.53 432.32 185.53 432.32 185.53 432.32 185.53 432.32 185.53 432.32 185.53 432.32 185.53 432.32 185.53 432.32 185.53 432.32 185.53 432.32 185.53 432.32 185.53 432.32 185.53 432.32 185.53 432.32 185.53"/><polygon class="cls-8" points="465.67 183.41 465.67 183.41 465.67 183.41 465.67 183.41 465.67 183.41 465.67 183.41 465.67 183.41 465.67 183.41 465.67 183.41 465.67 183.41 465.67 183.41 465.67 183.41 465.67 183.41 465.67 183.41 465.67 183.41 465.67 183.41 465.67 183.41 465.67 183.41 465.67 183.41 465.67 183.41 465.67 183.41 465.67 183.41 465.67 183.41 465.67 183.41 465.67 183.41 465.67 183.41 465.67 183.41 465.67 183.41 465.67 183.41 465.67 183.41 465.67 183.41 465.67 183.41 465.67 183.41 465.67 183.41 465.67 183.41 465.67 183.41 465.67 183.41 465.67 183.41 465.67 183.41 465.67 183.41 465.67 183.41 465.67 183.41 465.67 183.41 465.67 183.41 465.67 183.41 465.67 183.41 465.67 183.41 465.67 183.41 465.67 183.41 465.67 183.41 465.67 183.41 465.67 183.41 465.67 183.41 465.67 183.41 465.67 183.41 465.67 183.41 465.67 183.41 465.67 183.41 465.67 183.41 465.67 183.41 465.67 183.41 465.67 183.41 465.67 183.41 465.67 183.41 465.67 183.41 465.67 183.41 465.67 183.41 465.67 183.41 465.67 183.41 465.67 183.41 465.67 183.41 465.67 183.41 465.67 183.41 465.67 183.41 465.67 183.41 465.67 183.41 465.67 183.41 465.67 183.41 465.67 183.41 465.67 183.41 465.67 183.41 465.67 183.41 465.67 183.41 465.67 183.41 465.67 183.41 465.67 183.41 465.67 183.41 465.67 183.41 465.67 183.41 465.67 183.41 465.67 183.41 465.67 183.41 465.67 183.41 465.67 183.41 465.67 183.41 465.67 183.41 465.67 183.41"/><g class="cls-20"><path class="cls-8" d="M418.14,111.67Z" transform="translate(0 6.97)"/></g><line class="cls-11" x1="274.17" y1="126.18" x2="305.13" y2="180.3"/><line class="cls-12" x1="230.93" y1="126.22" x2="200.29" y2="179.76"/></g></g></svg>